<?xml version="1.0" encoding="UTF-8" standalone="no"?>
<svg
   xmlns:dc="http://purl.org/dc/elements/1.1/"
   xmlns:cc="http://creativecommons.org/ns#"
   xmlns:rdf="http://www.w3.org/1999/02/22-rdf-syntax-ns#"
   xmlns:svg="http://www.w3.org/2000/svg"
   xmlns="http://www.w3.org/2000/svg"
   xmlns:sodipodi="http://sodipodi.sourceforge.net/DTD/sodipodi-0.dtd"
   xmlns:inkscape="http://www.inkscape.org/namespaces/inkscape"
   height="24"
   id="svg6"
   version="1.1"
   viewBox="0 0 24 24"
   width="24"
   inkscape:export-filename="D:\Software Development\Applications\voipms-sms-client\voipms-sms\src\main\res\drawable-xxxhdpi\ic_message_sync_white_24dp.png"
   inkscape:export-xdpi="384"
   inkscape:export-ydpi="384"
   inkscape:version="0.92.2 (5c3e80d, 2017-08-06)"
   sodipodi:docname="ic_message_sync_24px.svg">
  <metadata
     id="metadata12">
    <rdf:RDF>
      <cc:Work
         rdf:about="">
        <dc:format>image/svg+xml</dc:format>
        <dc:type
           rdf:resource="http://purl.org/dc/dcmitype/StillImage" />
      </cc:Work>
    </rdf:RDF>
  </metadata>
  <defs
     id="defs10" />
  <sodipodi:namedview
     bordercolor="#666666"
     borderopacity="1"
     gridtolerance="10"
     guidetolerance="10"
     id="namedview8"
     objecttolerance="10"
     pagecolor="#ffffff"
     showgrid="false"
     showguides="false"
     inkscape:current-layer="svg6"
     inkscape:cx="20.920962"
     inkscape:cy="11.370737"
     inkscape:pageopacity="0"
     inkscape:pageshadow="2"
     inkscape:window-height="874"
     inkscape:window-maximized="0"
     inkscape:window-width="1559"
     inkscape:window-x="752"
     inkscape:window-y="228"
     inkscape:zoom="22.627417" />
  <path
     style="fill:#ffffff;fill-opacity:1"
     d="M 4 2 C 2.9 2 2.0097656 2.9 2.0097656 4 L 2 22 L 6 18 L 20 18 C 21.1 18 22 17.1 22 16 L 22 4 C 22 2.9 21.1 2 20 2 L 4 2 z M 12 2.5 L 12 4.5449219 C 15.013639 4.5449219 17.455078 6.9863688 17.455078 10 C 17.455078 11.070468 17.141194 12.065675 16.609375 12.904297 L 15.613281 11.908203 C 15.920089 11.342307 16.091797 10.688649 16.091797 10 C 16.091797 7.7431829 14.256808 5.9082031 12 5.9082031 L 12 7.9550781 L 9.2734375 5.2265625 L 12 2.5 z M 7.390625 7.0957031 L 8.3867188 8.0917969 C 8.0799004 8.6577046 7.9082031 9.3113697 7.9082031 10 C 7.9082031 12.256834 9.7431729 14.091797 12 14.091797 L 12 12.044922 L 14.726562 14.773438 L 12 17.5 L 12 15.455078 C 8.986359 15.455078 6.5449219 13.013639 6.5449219 10 C 6.5449219 8.9295494 6.8588063 7.9343346 7.390625 7.0957031 z "
     id="path2" />
  <path
     d="M0 0h24v24H0z"
     fill="none"
     id="path4" />
</svg>
