<?xml version="1.0" encoding="UTF-8" standalone="no"?>
<svg xmlns:cc="http://creativecommons.org/ns#"
    xmlns:dc="http://purl.org/dc/elements/1.1/"
    xmlns:inkscape="http://www.inkscape.org/namespaces/inkscape"
    xmlns:rdf="http://www.w3.org/1999/02/22-rdf-syntax-ns#"
    xmlns:sodipodi="http://sodipodi.sourceforge.net/DTD/sodipodi-0.dtd"
    height="24" id="svg6" version="1.1" viewBox="0 0 24 24" width="24"
    xmlns="http://www.w3.org/2000/svg"
    inkscape:export-filename="D:\Software Development\Applications\voipms-sms-client\voipms-sms\src\main\res\drawable-xxxhdpi\ic_message_refresh_white_24dp.png"
    inkscape:export-xdpi="384" inkscape:export-ydpi="384"
    inkscape:version="0.92.2 (5c3e80d, 2017-08-06)"
    sodipodi:docname="ic_message_refresh_24px.svg">
    <metadata id="metadata12">
        <rdf:RDF>
            <cc:Work rdf:about="">
                <dc:format>image/svg+xml</dc:format>
                <dc:type
                    rdf:resource="http://purl.org/dc/dcmitype/StillImage" />
            </cc:Work>
        </rdf:RDF>
    </metadata>
    <defs id="defs10" />
    <sodipodi:namedview bordercolor="#666666" borderopacity="1"
        gridtolerance="10" guidetolerance="10" id="namedview8"
        objecttolerance="10" pagecolor="#ffffff" showgrid="false"
        showguides="false" inkscape:current-layer="svg6"
        inkscape:cx="-4.0619719" inkscape:cy="-2.1041206"
        inkscape:pageopacity="0" inkscape:pageshadow="2"
        inkscape:window-height="874" inkscape:window-maximized="0"
        inkscape:window-width="1169" inkscape:window-x="342"
        inkscape:window-y="356" inkscape:zoom="9.8333333" />
    <path style="fill:#ffffff"
        d="M 4 2 C 2.9 2 2.0097656 2.9 2.0097656 4 L 2 22 L 6 18 L 20 18 C 21.1 18 22 17.1 22 16 L 22 4 C 22 2.9 21.1 2 20 2 L 4 2 z M 11.996094 4 C 13.653595 4 15.146876 4.6742187 16.234375 5.7617188 L 17.996094 4 L 17.996094 9.25 L 12.746094 9.25 L 15.162109 6.8359375 C 14.352109 6.0184376 13.241094 5.5 11.996094 5.5 C 9.5135934 5.5 7.4960938 7.5175002 7.4960938 10 C 7.4960937 12.4825 9.5135934 14.5 11.996094 14.5 C 13.953594 14.5 15.619376 13.2475 16.234375 11.5 L 17.792969 11.5 C 17.125469 14.0875 14.793594 16 11.996094 16 C 8.6810944 16 6.0039062 13.315 6.0039062 10 C 6.0039062 6.6850001 8.6810943 4 11.996094 4 z "
        id="path2" />
    <path d="M0 0h24v24H0z" fill="none" id="path4" />
</svg>
